REM DIRINDEX 1\2,1\3,1\4,1\5
REM DIRNAME "folder01","folder02","folder03","folder04","folder05"
TITLE ""
FILE "1Q_t_0278-0287.mp3" MP3
  TRACK 01 AUDIO
    TITLE "3:cjc172_1753"
    INDEX 01 00:00:00
  TRACK 02 AUDIO
    TITLE "0:"
    INDEX 01 00:01:23
  TRACK 03 AUDIO
    TITLE "4:cjc172_1754"
    INDEX 01 00:01:41
  TRACK 04 AUDIO
    TITLE "0:"
    INDEX 01 00:02:62
  TRACK 05 AUDIO
    TITLE "5:cjc172_1755"
    INDEX 01 00:03:01
  TRACK 06 AUDIO
    TITLE "0:"
    INDEX 01 00:07:67
  TRACK 07 AUDIO
    TITLE "3:cjc172_1756"
    INDEX 01 00:08:53
  TRACK 08 AUDIO
    TITLE "0:"
    INDEX 01 00:09:70
  TRACK 09 AUDIO
    TITLE "4:cjc172_1757"
    INDEX 01 00:10:11
  TRACK 10 AUDIO
    TITLE "0:"
    INDEX 01 00:12:25
  TRACK 11 AUDIO
    TITLE "5:cjc172_1758"
    INDEX 01 00:12:41
  TRACK 12 AUDIO
    TITLE "0:"
    INDEX 01 00:19:15
  TRACK 13 AUDIO
    TITLE "3:cjc172_1759"
    INDEX 01 00:19:66
  TRACK 14 AUDIO
    TITLE "0:"
    INDEX 01 00:20:74
  TRACK 15 AUDIO
    TITLE "4:cjc172_1760"
    INDEX 01 00:21:14
  TRACK 16 AUDIO
    TITLE "0:"
    INDEX 01 00:23:17
  TRACK 17 AUDIO
    TITLE "5:cjc172_1761"
    INDEX 01 00:23:33
  TRACK 18 AUDIO
    TITLE "0:"
    INDEX 01 00:29:37
  TRACK 19 AUDIO
    TITLE "3:cjc172_1762"
    INDEX 01 00:30:17
  TRACK 20 AUDIO
    TITLE "0:"
    INDEX 01 00:31:46
  TRACK 21 AUDIO
    TITLE "4:cjc172_1763"
    INDEX 01 00:31:62
  TRACK 22 AUDIO
    TITLE "0:"
    INDEX 01 00:34:19
  TRACK 23 AUDIO
    TITLE "5:cjc172_1764"
    INDEX 01 00:34:35
  TRACK 24 AUDIO
    TITLE "0:"
    INDEX 01 00:41:21
  TRACK 25 AUDIO
    TITLE "3:cjc172_1765"
    INDEX 01 00:42:01
  TRACK 26 AUDIO
    TITLE "0:"
    INDEX 01 00:43:08
  TRACK 27 AUDIO
    TITLE "4:cjc172_1766"
    INDEX 01 00:43:28
  TRACK 28 AUDIO
    TITLE "0:"
    INDEX 01 00:46:52
  TRACK 29 AUDIO
    TITLE "5:cjc172_1767"
    INDEX 01 00:46:67
  TRACK 30 AUDIO
    TITLE "0:"
    INDEX 01 00:52:09
  TRACK 31 AUDIO
    TITLE "3:cjc172_1768"
    INDEX 01 00:52:62
  TRACK 32 AUDIO
    TITLE "0:"
    INDEX 01 00:54:00
  TRACK 33 AUDIO
    TITLE "4:cjc172_1769"
    INDEX 01 00:54:16
  TRACK 34 AUDIO
    TITLE "0:"
    INDEX 01 00:57:36
  TRACK 35 AUDIO
    TITLE "5:cjc172_1770"
    INDEX 01 00:57:49
  TRACK 36 AUDIO
    TITLE "0:"
    INDEX 01 01:03:72
  TRACK 37 AUDIO
    TITLE "3:cjc172_1771"
    INDEX 01 01:04:51
  TRACK 38 AUDIO
    TITLE "0:"
    INDEX 01 01:05:65
  TRACK 39 AUDIO
    TITLE "4:cjc172_1772"
    INDEX 01 01:06:05
  TRACK 40 AUDIO
    TITLE "0:"
    INDEX 01 01:07:32
  TRACK 41 AUDIO
    TITLE "5:cjc172_1773"
    INDEX 01 01:07:48
  TRACK 42 AUDIO
    TITLE "0:"
    INDEX 01 01:11:53
  TRACK 43 AUDIO
    TITLE "3:cjc172_1774"
    INDEX 01 01:12:33
  TRACK 44 AUDIO
    TITLE "0:"
    INDEX 01 01:13:52
  TRACK 45 AUDIO
    TITLE "4:cjc172_1775"
    INDEX 01 01:13:58
  TRACK 46 AUDIO
    TITLE "0:"
    INDEX 01 01:17:54
  TRACK 47 AUDIO
    TITLE "5:cjc172_1776"
    INDEX 01 01:17:68
  TRACK 48 AUDIO
    TITLE "0:"
    INDEX 01 01:24:25
  TRACK 49 AUDIO
    TITLE "3:cjc172_1777"
    INDEX 01 01:25:03
  TRACK 50 AUDIO
    TITLE "0:"
    INDEX 01 01:26:16
  TRACK 51 AUDIO
    TITLE "4:cjc172_1778"
    INDEX 01 01:26:31
  TRACK 52 AUDIO
    TITLE "0:"
    INDEX 01 01:28:56
  TRACK 53 AUDIO
    TITLE "5:cjc172_1779"
    INDEX 01 01:28:72
  TRACK 54 AUDIO
    TITLE "0:"
    INDEX 01 01:33:08
  TRACK 55 AUDIO
    TITLE "3:cjc172_1780"
    INDEX 01 01:33:61
  TRACK 56 AUDIO
    TITLE "0:"
    INDEX 01 01:34:64
  TRACK 57 AUDIO
    TITLE "4:cjc172_1781"
    INDEX 01 01:35:07
  TRACK 58 AUDIO
    TITLE "0:"
    INDEX 01 01:36:63
  TRACK 59 AUDIO
    TITLE "5:cjc172_1782"
    INDEX 01 01:37:04
  TRACK 60 AUDIO
    TITLE "0:"
    INDEX 01 01:42:01
